#!OML:ASF C:\ViconDB\ViconDB\414\Spring2016\041811\Spring2016.ASF
:FULLY-SPECIFIED
:DEGREES
289
root 10.7027 18.2187 -29.3891 -181.508 2.99212 -175.133
lowerback 2.0311 2.48729 3.36525
upperback 2.55046 3.46334 1.44877
thorax 1.58821 1.82954 -0.410828
lowerneck -10.2362 -4.19585 -11.1288
upperneck 18.6014 -7.86465 14.824
head 8.45469 -3.59522 6.01346
rclavicle 6.276e-014 -4.57205e-015
rhumerus -25.3435 -9.32872 -87.53
rradius 39.0446
rwrist 32.6855
rhand -34.5745 -14.8588
rfingers 7.12502
rthumb -7.73413 -44.6973
lclavicle 6.276e-014 -4.57205e-015
lhumerus -45.459 2.13679 87.7291
lradius 25.796
lwrist -34.0542
lhand -25.1125 13.7493
lfingers 7.12502
lthumb 1.40292 43.7244
rfemur 147.119 51.9881 -173.711
rtibia 25.8256
rfoot -58.7457 -41.4064
rtoes -3.18055e-015
lfemur -26.7913 -4.62997 -8.31733
ltibia 24.1274
lfoot -15.423 11.9071
ltoes -2.95792e-013
290
root 10.6873 18.2101 -29.5608 -181.452 2.94238 -174.915
lowerback 1.95025 2.5168 3.4891
upperback 2.57394 3.50303 1.5187
thorax 1.66217 1.85376 -0.402803
lowerneck -10.1661 -4.26524 -11.1977
upperneck 18.3704 -7.88293 14.766
head 8.36855 -3.60759 5.99849
rclavicle 6.94752e-014 3.18055e-015
rhumerus -25.0495 -9.22733 -87.3977
rradius 39.2088
rwrist 32.5117
rhand -34.5215 -14.9971
rfingers 7.12502
rthumb -7.68291 -44.8375
lclavicle 6.94752e-014 3.18055e-015
lhumerus -45.241 2.2174 87.7559
lradius 25.7389
lwrist -34.4833
lhand -24.8407 13.6172
lfingers 7.12502
lthumb 1.66544 43.5905
rfemur 147.014 51.1699 -173.856
rtibia 25.007
rfoot -57.7 -41.2487
rtoes -1.54257e-013
lfemur -27.1577 -6.13763 -7.70732
ltibia 23.4343
lfoot -16.1907 12.7042
ltoes -1.7175e-013
291
root 10.6696 18.2009 -29.7361 -181.446 3.08903 -174.787
lowerback 1.92765 2.59789 3.5386
upperback 2.58458 3.61077 1.51376
thorax 1.69293 1.90918 -0.433472
lowerneck -10.076 -4.29986 -11.2461
upperneck 18.1682 -7.9083 14.8428
head 8.29399 -3.61792 6.02763
rclavicle -8.89561e-015 -6.95746e-015
rhumerus -24.8862 -9.54347 -87.2652
rradius 39.3087
rwrist 32.9699
rhand -34.5968 -14.9985
rfingers 7.12502
rthumb -7.75559 -44.8363
lclavicle -8.89561e-015 -6.95746e-015
lhumerus -45.1476 1.73189 88.0401
lradius 25.8566
lwrist -34.0187
lhand -24.9088 13.724
lfingers 7.12502
lthumb 1.59962 43.6978
rfemur 146.754 50.2619 -174.19
rtibia 24.2858
rfoot -56.6989 -41.2276
rtoes -9.06458e-014
lfemur -27.4014 -7.46912 -7.23071
ltibia 23.0309
lfoot -16.9647 13.7448
ltoes 3.81667e-014
292
root 10.6519 18.184 -29.9125 -181.447 3.19612 -174.68
lowerback 1.91541 2.61906 3.53629
upperback 2.60869 3.639 1.51729
thorax 1.7252 1.92442 -0.426967
lowerneck -10.156 -4.28685 -11.2362
upperneck 18.0974 -7.85518 14.8254
head 8.2769 -3.58568 6.02367
rclavicle -1.99033e-014 1.81888e-014
rhumerus -24.7026 -9.68258 -87.1709
rradius 39.3845
rwrist 33.4594
rhand -34.4144 -14.8901
rfingers 7.12502
rthumb -7.57961 -44.7343
lclavicle -1.99033e-014 1.81888e-014
lhumerus -44.9985 1.96687 87.8925
lradius 25.8793
lwrist -34.3852
lhand -24.6985 13.5036
lfingers 7.12502
lthumb 1.80272 43.4757
rfemur 146.587 49.0168 -174.308
rtibia 23.7154
rfoot -55.2294 -41.2539
rtoes -3.49861e-014
lfemur -27.5655 -8.48087 -6.898
ltibia 22.7183
lfoot -17.564 14.6433
ltoes 2.8625e-014
